<?xml version="1.0" encoding="UTF-8"?>
<svg version="1.1" xmlns="http://www.w3.org/2000/svg" width="600" height="600">
<path d="M0 0 C2.9709111 1.60654409 5.58001133 3.62792759 8.25 5.6875 C9.85909517 6.88969754 11.4684782 8.09150989 13.078125 9.29296875 C13.89603516 9.91091309 14.71394531 10.52885742 15.55664062 11.16552734 C19.33113465 13.99941505 23.16606264 16.7473972 27 19.5 C28.49641602 20.5802829 29.99250871 21.6610138 31.48828125 22.7421875 C34.52626418 24.93639624 37.56544994 27.12892539 40.60546875 29.3203125 C44.35073841 32.02015028 48.0911243 34.72666964 51.83056641 37.43457031 C53.98977623 38.99262268 56.15636611 40.53994097 58.32421875 42.0859375 C59.67462728 43.05708574 61.0248946 44.02843038 62.375 45 C63.29381958 45.6489624 63.29381958 45.6489624 64.23120117 46.31103516 C71.04216607 51.23877066 74.82826577 57.68286536 79.125 64.75 C79.66253906 65.6059375 80.20007813 66.461875 80.75390625 67.34375 C81.27082031 68.19453125 81.78773438 69.0453125 82.3203125 69.921875 C82.78711426 70.68081055 83.25391602 71.43974609 83.73486328 72.22167969 C89.26144747 84.35840838 89.60271423 100.07537325 91.58813477 113.23730469 C92.06860804 116.414315 92.56096497 119.5891363 93.0637207 122.76269531 C93.67498263 126.62179783 94.26513917 130.48359038 94.84068871 134.34817505 C95.06190256 135.80997827 95.29032003 137.27071176 95.52636147 138.73019409 C97.74332146 152.50309864 97.74332146 152.50309864 94.72038269 159.28100586 C93.8067475 161.15050399 93.8067475 161.15050399 94 164 C95.54092629 165.2885372 95.54092629 165.2885372 97.62890625 166.34765625 C98.40919189 166.78295654 99.18947754 167.21825684 99.9934082 167.66674805 C100.8412085 168.12734619 101.68900879 168.58794434 102.5625 169.0625 C108.81161138 172.55741009 114.90736537 176.13643192 120.8125 180.1875 C126.67114404 184.19243245 132.67082508 187.77419056 138.87890625 191.2109375 C142.02980801 193.01708645 145.00219862 194.95338071 148 197 C147.67 192.38 147.34 187.76 147 183 C146.34 183.99 145.68 184.98 145 186 C140.36852773 185.41775777 136.78486453 183.43118513 132.8125 181.125 C132.12776611 180.73441406 131.44303223 180.34382812 130.73754883 179.94140625 C124.36221968 176.27578949 118.0918255 172.43576346 111.8527832 168.54345703 C110.77130005 167.8722583 110.77130005 167.8722583 109.66796875 167.1875 C109.03141357 166.78917969 108.3948584 166.39085937 107.73901367 165.98046875 C105.85654965 164.84637167 105.85654965 164.84637167 103 164 C104.73078147 153.65174869 111.52522063 144.73903067 117 136 C118.485 133.525 118.485 133.525 120 131 C115.38 128.03 110.76 125.06 106 122 C106.10623807 115.83819193 107.5819458 111.03431885 110.25 105.5 C110.5375415 104.87657715 110.82508301 104.2531543 111.12133789 103.61083984 C112.47499046 100.93605488 113.56062725 99.24099634 116.21484375 97.78515625 C120.63993656 98.12650282 123.69277886 100.5017091 127.3125 102.9375 C128.05306641 103.41896484 128.79363281 103.90042969 129.55664062 104.39648438 C131.37976415 105.58445519 133.19108041 106.79051088 135 108 C135.0928125 107.32453125 135.185625 106.6490625 135.28125 105.953125 C136.17796203 102.26880818 137.77250684 99.09773709 139.5 95.75 C139.85674805 95.04528564 140.21349609 94.34057129 140.58105469 93.61450195 C142.3753914 90.0894658 144.2107097 86.59103767 146.109375 83.12109375 C152.06495798 72.20458002 157.12791471 60.97139907 162.10546875 49.578125 C162.57903809 48.50498047 163.05260742 47.43183594 163.54052734 46.32617188 C164.56353557 43.99471251 165.56711679 41.65967669 166.55712891 39.31445312 C167.07065918 38.13302734 167.58418945 36.95160156 168.11328125 35.734375 C168.80031128 34.12127441 168.80031128 34.12127441 169.5012207 32.47558594 C171 30 171 30 172.97070312 29.06787109 C183.46855445 28.71676394 195.92642907 41.51928852 203.07421875 48.15234375 C206.99422132 51.91331985 206.99422132 51.91331985 207.25 55.75 C207.16876295 59.45982506 206.38476789 62.53808026 205 66 C206.5159375 65.505 206.5159375 65.505 208.0625 65 C215.08015095 63.0451834 221.48220927 63.81044283 228 67 C233.92786882 72.92786882 233.35306024 79.25977375 233.38720703 87.1237793 C233.17142009 101.56089561 229.56439239 115.81607091 223.70458984 128.99145508 C222.45014238 131.93976778 221.88524431 133.56241511 222.7109375 136.7109375 C223.81438341 138.67038994 224.92215113 140.62434051 226.0625 142.5625 C231.19412302 152.88340472 229.57704246 167.30898223 225.99609375 177.99609375 C220.69308892 189.49468838 212.05535687 193.87196023 201.09423828 199.00927734 C197.82664963 200.55507762 194.60244378 202.18499683 191.375 203.8125 C189.25 204.875 187.125 205.9375 185 207 C183.515 207.804375 183.515 207.804375 182 208.625 C178.82205985 210.0815559 176.07591498 210.6890345 172.625 211.1875 C171.56539063 211.34605469 170.50578125 211.50460937 169.4140625 211.66796875 C168.61742187 211.77753906 167.82078125 211.88710938 167 212 C167.928125 212.7425 168.85625 213.485 169.8125 214.25 C174.83630952 218.53571429 174.83630952 218.53571429 176 221 C175.93641648 224.0520088 175.53255544 226.99715728 175 230 C176.0725 229.505 177.145 229.01 178.25 228.5 C185.36250099 225.86900406 192.98618242 225.87053762 200.0625 228.625 C204.01884662 230.64967648 205.59673525 232.70250169 207 237 C212.65456542 256.01990187 201.57255299 277.54800987 193.078125 293.91748047 C192.00920345 295.98222251 190.95719026 298.05496583 189.90625 300.12890625 C184.24878614 311.17344523 177.76944494 321.60733613 171 332 C170.42137207 332.8957373 170.42137207 332.8957373 169.83105469 333.80957031 C151.76097761 361.75728878 128.37768863 388.58125209 102 409 C100.14269596 410.57965191 98.28872867 412.16323257 96.4375 413.75 C82.25964309 425.52235933 67.21036869 435.26632791 51 444 C49.93604004 444.57379395 48.87208008 445.14758789 47.77587891 445.73876953 C44.44096345 447.52701526 41.09794788 449.29878496 37.75 451.0625 C36.71480225 451.61099609 35.67960449 452.15949219 34.61303711 452.72460938 C22.39073251 459.07468424 12.17086876 461.19996642 -1.61083984 461.24023438 C-3.5987554 461.24987275 -5.58652873 461.28104299 -7.57421875 461.3125 C-20.64418952 461.36483222 -30.77540359 458.631572 -42.3125 452.625 C-43.85393677 451.83488525 -43.85393677 451.83488525 -45.42651367 451.02880859 C-48.62889773 449.37298464 -51.8165125 447.69184108 -55 446 C-56.00160156 445.47019531 -57.00320312 444.94039062 -58.03515625 444.39453125 C-71.90071096 436.9959151 -84.6562999 428.72093789 -97 419 C-97.71800781 418.43748535 -98.43601563 417.8749707 -99.17578125 417.29541016 C-107.10795547 411.05081688 -114.76305394 404.57050707 -122.13671875 397.67578125 C-124.08188181 395.85799585 -126.0337326 394.06456889 -128.01953125 392.29296875 C-135.15159042 385.91081034 -141.63125813 379.13837835 -148 372 C-148.77085937 371.16726563 -149.54171875 370.33453125 -150.3359375 369.4765625 C-167.26765421 351.11901702 -180.61808001 329.59666631 -193 308 C-193.47566406 307.18128418 -193.95132813 306.36256836 -194.44140625 305.51904297 C-200.46961269 295.04154384 -205.20140128 284.46330292 -209.0625 273 C-209.43270264 271.90292725 -209.80290527 270.80585449 -210.18432617 269.67553711 C-214.00701253 257.75447219 -217.88416191 243.17122702 -213 231 C-209.59176982 225.88765473 -205.05117952 224.58297684 -199.28515625 223.296875 C-193.28658022 222.75479203 -187.37327826 224.31336087 -182 227 C-182.309375 226.175 -182.61875 225.35 -182.9375 224.5 C-183.02450377 219.62778864 -180.82490325 217.94422375 -177.56640625 214.5390625 C-177.04949219 214.03117188 -176.53257812 213.52328125 -176 213 C-177.09054688 212.79697266 -177.09054688 212.79697266 -178.203125 212.58984375 C-185.26846398 211.07713656 -190.61421343 208.70986661 -196.71875 204.89453125 C-200.45634259 202.73651648 -204.27144222 201.09048509 -208.25 199.4375 C-214.13250757 196.9440971 -219.31114909 194.4465058 -224 190 C-224.70769531 189.33226562 -225.41539062 188.66453125 -226.14453125 187.9765625 C-234.61703348 179.27507372 -235.50206432 170.10830466 -235.375 158.3125 C-235.38660156 157.22388672 -235.39820313 156.13527344 -235.41015625 155.01367188 C-235.38191691 147.27138666 -234.3254879 142.48823185 -230 136 C-229.72235575 129.40276517 -232.03675262 122.85440698 -233.9375 116.625 C-237.04619408 105.988444 -239.14568008 96.35936188 -239.3125 85.25 C-239.33932861 84.042229 -239.33932861 84.042229 -239.36669922 82.81005859 C-239.358951 77.46710729 -238.6116201 73.69733043 -236 69 C-231.47405793 65.00652171 -224.88649097 63.86737542 -219 64 C-216.21828157 64.46747681 -213.70537798 65.16379226 -211 66 C-211.17917969 65.35933594 -211.35835937 64.71867187 -211.54296875 64.05859375 C-211.86201172 62.76115234 -211.86201172 62.76115234 -212.1875 61.4375 C-212.40792969 60.59058594 -212.62835938 59.74367187 -212.85546875 58.87109375 C-213.05858494 54.83621814 -211.93668931 52.52697891 -210 49 C-208.04168699 46.97406179 -206.2455265 45.29178558 -204.0625 43.5625 C-203.49055908 43.09803467 -202.91861816 42.63356934 -202.3293457 42.1550293 C-200.56985952 40.74652054 -198.79067187 39.36857784 -197 38 C-196.45504883 37.57912109 -195.91009766 37.15824219 -195.34863281 36.72460938 C-188.88414549 31.81175774 -185.1020996 29.53975211 -177 30 C-176.73485596 30.64098633 -176.46971191 31.28197266 -176.1965332 31.94238281 C-166.61942646 55.01886332 -156.36610741 77.74247181 -145 100 C-143.66238686 102.66454911 -142.33101522 105.33214454 -141 108 C-139.58847656 107.00806641 -139.58847656 107.00806641 -138.1484375 105.99609375 C-136.89123887 105.14232453 -135.63339174 104.2895097 -134.375 103.4375 C-133.75753906 102.99986328 -133.14007813 102.56222656 -132.50390625 102.11132812 C-129.51360337 100.11254673 -127.46428323 99.05760338 -123.8515625 98.609375 C-119.14461844 100.90481621 -117.95289046 105.14437813 -116 109.8125 C-115.58105469 110.72837891 -115.16210938 111.64425781 -114.73046875 112.58789062 C-111.78957315 119.34014759 -111.78957315 119.34014759 -112.68505859 122.14819336 C-114.13032352 124.1835321 -115.32319768 125.1184529 -117.4765625 126.359375 C-118.146875 126.75253906 -118.8171875 127.14570313 -119.5078125 127.55078125 C-120.20648438 127.94652344 -120.90515625 128.34226563 -121.625 128.75 C-122.33140625 129.16121094 -123.0378125 129.57242188 -123.765625 129.99609375 C-125.50498447 131.00680263 -127.25179403 132.00467105 -129 133 C-127.85648896 135.02217621 -126.71038643 137.04280786 -125.5625 139.0625 C-125.2106665 139.68358643 -124.85883301 140.30467285 -124.49633789 140.94458008 C-122.53282031 144.38988401 -120.52425323 147.79660876 -118.4296875 151.1640625 C-118.01388428 151.83687256 -117.59808105 152.50968262 -117.16967773 153.20288086 C-116.35743378 154.51112955 -115.53679236 155.81420707 -114.70727539 157.11157227 C-113.72736313 158.69566028 -112.85392915 160.34459435 -112 162 C-113.12648868 165.37946604 -113.51794506 165.6030624 -116.4375 167.3125 C-117.15993896 167.74336914 -117.88237793 168.17423828 -118.62670898 168.61816406 C-119.40989502 169.07416992 -120.19308105 169.53017578 -121 170 C-126.02062956 172.97766196 -131.01110218 175.96773943 -135.87109375 179.203125 C-136.63873047 179.71359375 -137.40636719 180.2240625 -138.19726562 180.75 C-139.67128673 181.73696444 -141.14022092 182.7315761 -142.60351562 183.734375 C-144.35346188 184.89987647 -146.17240094 185.96048701 -148 187 C-151 186 -151 186 -153 183 C-153 186.96 -153 190.92 -153 195 C-152.10023438 194.36835938 -151.20046875 193.73671875 -150.2734375 193.0859375 C-134.56721202 182.1362764 -118.36082315 171.9399718 -102 162 C-102.165 161.175 -102.33 160.35 -102.5 159.5 C-103.79615968 150.42688224 -102.26560669 141.67967003 -100.953125 132.6953125 C-100.73836698 131.2061458 -100.52374953 129.71695882 -100.30926514 128.22775269 C-99.85940225 125.11557287 -99.40475253 122.00413413 -98.94726562 118.89306641 C-98.36564325 114.93214695 -97.8007284 110.96904288 -97.24003983 107.0051136 C-96.80241344 103.93067833 -96.35340145 100.85798185 -95.90132904 97.78564072 C-95.68843159 96.32638378 -95.47951359 94.86653986 -95.27487946 93.40610123 C-92.7969994 75.79888365 -85.78706403 57.33173554 -71.30615234 46.00366211 C-68.61604815 44.05905213 -65.88321831 42.19612131 -63.10302734 40.3828125 C-60.26210046 38.51480578 -57.50243582 36.54089208 -54.73510742 34.56616211 C-52.61480401 33.05523434 -50.48440625 31.55956674 -48.3515625 30.06640625 C-43.87046258 26.91952096 -39.4330298 23.71410214 -35 20.5 C-28.8805846 16.0662801 -22.73705819 11.66914106 -16.5625 7.3125 C-15.84642578 6.8071875 -15.13035156 6.301875 -14.39257812 5.78125 C-5.13069249 -0.74069856 -5.13069249 -0.74069856 0 0 Z M-181 130 C-180.67 131.32 -180.34 132.64 -180 134 C-179.34 133.34 -178.68 132.68 -178 132 C-178.33 131.34 -178.66 130.68 -179 130 C-179.66 130 -180.32 130 -181 130 Z M172 130 C173 133 173 133 173 133 Z M130 136 C130.64653327 142.95023264 132.86027248 149.38177303 135 156 C136.68864588 154.36290685 136.68864588 154.36290685 138 152 C137.63194032 146.35641827 136.2847817 141.31466035 132.3125 137.25 C131.549375 136.8375 130.78625 136.425 130 136 Z M-139 139 C-142.08396538 140.74758038 -142.96241042 141.90692105 -144.3125 145.25 C-145.04120131 149.22473441 -144.9403478 152.08188415 -144 156 C-143.34 156.33 -142.68 156.66 -142 157 C-141.30215669 154.565036 -140.61646178 152.12772895 -139.9375 149.6875 C-139.73833984 148.99720703 -139.53917969 148.30691406 -139.33398438 147.59570312 C-138.13040799 143.30665604 -138.13040799 143.30665604 -139 139 Z M121 153 C119.515 156.465 119.515 156.465 118 160 C119.98 160.66 121.96 161.32 124 162 C123.34 159.03 122.68 156.06 122 153 C121.67 153 121.34 153 121 153 Z M-130 154 C-131.485 160.435 -131.485 160.435 -133 167 C-129.04 164.525 -129.04 164.525 -125 162 C-126.32 159.36 -127.64 156.72 -129 154 C-129.33 154 -129.66 154 -130 154 Z " fill="#010101" transform="translate(304,80)"/>
<path d="M0 0 C2.65318773 0.82788011 4.31535028 1.78892049 6.52099609 3.46191406 C7.26414062 4.01814453 8.00728516 4.574375 8.77294922 5.14746094 C9.56378906 5.75267578 10.35462891 6.35789062 11.16943359 6.98144531 C12.88019873 8.26683101 14.59114114 9.55198078 16.30224609 10.83691406 C17.17397461 11.4961084 18.04570312 12.15530273 18.94384766 12.83447266 C22.95249514 15.85488241 26.99908091 18.82299443 31.04443359 21.79394531 C32.61228412 22.95000249 34.17999169 24.10625358 35.74755859 25.26269531 C39.06502056 27.70771674 42.38881133 30.14385072 45.71630859 32.57519531 C46.56644531 33.1978125 47.41658203 33.82042969 48.29248047 34.46191406 C49.9066853 35.64390012 51.52245854 36.82374864 53.14013672 38.00097656 C55.291381 39.57817928 57.42392052 41.1756992 59.54443359 42.79394531 C60.18364746 43.28056641 60.82286133 43.7671875 61.48144531 44.26855469 C65.82751289 47.76032686 68.55891517 51.39007985 71.16943359 56.29394531 C71.74008545 57.34714966 71.74008545 57.34714966 72.32226562 58.42163086 C78.70035963 70.49318778 81.39210237 82.36445125 83.23583984 95.75146484 C83.60528733 98.19671619 84.14855551 100.57906195 84.73193359 102.98144531 C86.19829512 109.78003058 85.69884012 116.87996434 85.54443359 123.79394531 C82.99477846 121.24429018 82.52857023 119.03856394 81.41943359 115.60644531 C72.21382772 88.79750196 54.43184822 66.99030899 31.54443359 50.79394531 C31.8727417 51.29676025 32.2010498 51.7995752 32.53930664 52.31762695 C37.49213733 60.04477052 42.84310619 69.43383233 42.21630859 78.92285156 C41.09645962 82.04150073 38.97812517 83.24041006 36.17333984 84.82128906 C26.50121568 88.39983129 16.82481023 88.11077601 6.66943359 88.04394531 C5.8418454 88.04084351 5.0142572 88.0377417 4.16159058 88.0345459 C-39.40718957 87.84232215 -39.40718957 87.84232215 -46.45556641 80.79394531 C-46.93454972 74.48386084 -45.83598143 70.26861071 -43.14306641 64.60644531 C-42.83433594 63.92130859 -42.52560547 63.23617187 -42.20751953 62.53027344 C-40.50348056 58.80291241 -38.64636362 55.26551629 -36.45556641 51.79394531 C-46.34874694 57.72985364 -53.08623624 66.81805771 -59.98046875 75.86572266 C-61.46544437 77.80685762 -62.96906845 79.73239812 -64.47509766 81.65722656 C-73.68298369 93.53917956 -81.56222053 105.93775779 -87.45556641 119.79394531 C-88.54883443 116.00640818 -88.15853206 113.71035055 -87.20556641 109.85644531 C-85.79772617 103.71314246 -84.80187264 97.60055458 -83.95556641 91.35644531 C-83.57635953 88.66328299 -83.19343044 85.97068357 -82.80859375 83.27832031 C-82.58777391 81.72433504 -82.37124657 80.16972682 -82.16113281 78.61425781 C-80.03653079 63.36755007 -73.81505571 52.15406064 -61.45556641 42.79394531 C-58.13730086 40.34204568 -54.79053884 37.94213664 -51.40869141 35.57910156 C-46.97427118 32.47388192 -42.62083641 29.26219548 -38.26806641 26.04394531 C-37.47440674 25.45790527 -36.68074707 24.87186523 -35.86303711 24.26806641 C-34.22972258 23.06170976 -32.59666904 21.85499968 -30.96386719 20.64794922 C-26.71328908 17.50614562 -22.45963326 14.36852255 -18.20556641 11.23144531 C-17.43188721 10.66006836 -16.65820801 10.08869141 -15.86108398 9.5 C-14.4071789 8.42764767 -12.94989888 7.35985118 -11.48876953 6.29736328 C-10.14975842 5.30725396 -8.82971522 4.29088168 -7.53173828 3.24755859 C-3.05885945 -0.256679 -3.05885945 -0.256679 0 0 Z " fill="#1F1F1F" transform="translate(301.45556640625,88.2060546875)"/>
<path d="M0 0 C4.10958767 1.45044271 7.43258745 3.51110752 11 6 C10.4603711 15.23412973 9.03784443 24.18288764 7.25 33.25 C7.05124771 34.27131516 7.05124771 34.27131516 6.84848022 35.31326294 C4.8673878 45.44249998 2.55978484 55.29264347 -1 65 C-1.32226562 65.89847656 -1.64453125 66.79695313 -1.9765625 67.72265625 C-2.62575763 69.49125794 -3.30660158 71.24825661 -4 73 C7.85519454 60.8078361 17.3736776 46.59850301 26 32 C26.92570801 32.52460815 26.92570801 32.52460815 27.87011719 33.05981445 C35.18952163 37.13675744 42.66237425 40.75775827 50.26269531 44.26928711 C52.26280097 45.19341455 54.26048645 46.12261661 56.2578125 47.05273438 C62.13887501 49.78483822 68.03057618 52.46655376 74 55 C66.4746271 75.06766107 53.49093673 94.49905478 40 111 C38.958786 112.29489037 37.91847032 113.59050341 36.87890625 114.88671875 C30.50858464 122.80399689 24.0188381 130.61625609 17.41650391 138.34082031 C15.88204826 140.13815926 14.35308616 141.94009341 12.82421875 143.7421875 C11.75801937 144.99496775 10.6916177 146.24757588 9.625 147.5 C9.13700928 148.07572754 8.64901855 148.65145508 8.14624023 149.24462891 C5.23274841 152.65464187 2.21243018 155.86934077 -1 159 C-0.60207734 154.02596673 0.35956272 149.56283184 1.796875 144.78125 C4.20799511 136.46775112 6.1385649 128.07625178 8 119.625 C8.17297607 118.84528839 8.34595215 118.06557678 8.52416992 117.26223755 C13.80553809 95.81713541 13.80553809 95.81713541 16 74 C15.73485596 74.51570557 15.46971191 75.03141113 15.1965332 75.56274414 C-13.94302508 132.08467022 -13.94302508 132.08467022 -29 148 C-29.33 148 -29.66 148 -30 148 C-30 145.69 -30 143.38 -30 141 C-33.17050333 144.11852786 -36.21808655 147.30825041 -39.20019531 150.60668945 C-44.82012802 156.81610624 -50.63146706 162.54729591 -57 168 C-58.32 167.34 -59.64 166.68 -61 166 C-59.51734864 161.78614877 -57.38176054 158.43589877 -54.875 154.75 C-49.68235198 146.90239279 -45.77181696 138.60174944 -42 130 C-41.60039062 129.10796875 -41.20078125 128.2159375 -40.7890625 127.296875 C-36.40078188 116.97563898 -33.66294018 105.8716365 -31 95 C-33.77739005 97.66782607 -36.13539248 100.38688133 -38.3828125 103.51171875 C-38.99253906 104.35154297 -39.60226562 105.19136719 -40.23046875 106.05664062 C-41.50171461 107.82196863 -42.7725427 109.58759755 -44.04296875 111.35351562 C-44.65011719 112.18947266 -45.25726563 113.02542969 -45.8828125 113.88671875 C-46.43340332 114.65201904 -46.98399414 115.41731934 -47.55126953 116.20581055 C-49 118 -49 118 -51 119 C-49.47285191 114.66355276 -47.18245335 111.01312786 -44.6875 107.1875 C-40.2029538 100.16755391 -36.14313697 92.95454598 -32.1875 85.625 C-31.64891357 84.62750732 -31.11032715 83.63001465 -30.55541992 82.60229492 C-23.42140002 69.40596738 -23.42140002 69.40596738 -17.875 55.5 C-17.62347168 54.74605957 -17.37194336 53.99211914 -17.11279297 53.21533203 C-14.48401468 44.967817 -13.15352129 36.56034218 -12 28 C-11.01 28.33 -10.02 28.66 -9 29 C-6.60549684 21.14231001 -4.57492028 13.6052369 -3.58984375 5.42578125 C-2.93369648 2.72732129 -2.12865633 1.72484619 0 0 Z " fill="#828282" transform="translate(391,252)"/>
<path d="M0 0 C0.66 0 1.32 0 2 0 C2.33 1.32 2.66 2.64 3 4 C3.66 4 4.32 4 5 4 C5.30292969 4.6290625 5.60585937 5.258125 5.91796875 5.90625 C6.33691406 6.7621875 6.75585938 7.618125 7.1875 8.5 C7.59355469 9.3353125 7.99960938 10.170625 8.41796875 11.03125 C9.66009303 13.36214988 10.9571411 15.51811965 12.38671875 17.73046875 C15.23915256 22.23643356 17.41525132 26.96764983 19.625 31.8125 C27.04563344 47.6988476 36.08093765 62.5037791 45.74951172 77.10888672 C46.91480595 78.87116105 48.07021568 80.63946029 49.22265625 82.41015625 C54.98232081 91.18837333 61.32209651 99.26767783 68.125 107.25 C68.62805664 107.84087402 69.13111328 108.43174805 69.64941406 109.04052734 C72.63433977 112.51180533 75.7476809 115.77407959 79 119 C80.46831338 120.63693594 81.92677791 122.28276248 83.375 123.9375 C86.49648355 127.43231713 89.63977963 130.62325793 93.296875 133.55078125 C95 135 95 135 97.30859375 137.3203125 C116.5560068 156.48391969 139.84052989 171.80190064 164 184 C164.6177832 184.31308105 165.23556641 184.62616211 165.87207031 184.94873047 C169.90400116 186.98766391 173.95028059 188.99660524 178 191 C178.62269775 191.34869141 179.24539551 191.69738281 179.88696289 192.05664062 C187.86350325 196.40587791 196.13703325 196.89243154 205 195 C212.13128144 192.40691981 218.63737521 188.51713102 225.14990234 184.66796875 C228.77672752 182.54543409 232.4706676 180.56279076 236.1730957 178.57617188 C246.39318071 173.06865472 256.33987392 167.31357233 265.44140625 160.06640625 C267 159 267 159 269 159 C269 158.34 269 157.68 269 157 C270.3984375 155.7734375 270.3984375 155.7734375 272.375 154.375 C282.82804353 146.76445076 292.58116639 138.44662077 301.70703125 129.28125 C304 127 304 127 306.375 125.1875 C309.28792772 122.76006023 311.61627132 120.11888324 314.0703125 117.23828125 C316.03546268 114.95886616 318.0753758 112.76603371 320.125 110.5625 C329.46173839 100.2025574 337.76948357 88.9148465 345 77 C345.77235337 75.77713546 346.54728426 74.55589661 347.32421875 73.3359375 C354.47988822 62.07387377 361.11042104 50.57684735 367.2722168 38.74169922 C372.03246449 29.60480583 377.21763594 20.78840629 382.71289062 12.07373047 C383.60984543 10.62859881 384.48180284 9.16777906 385.33398438 7.69580078 C385.76517578 6.96216309 386.19636719 6.22852539 386.640625 5.47265625 C387.02250977 4.8062915 387.40439453 4.13992676 387.79785156 3.45336914 C388.19456055 2.97375732 388.59126953 2.49414551 389 2 C389.99 2 390.98 2 392 2 C390.90164242 18.20077424 383.67092331 32.79710292 376.5625 47.125 C375.88078735 48.5025647 375.88078735 48.5025647 375.18530273 49.90795898 C372.06408199 56.12089723 368.66569778 62.09335695 365 68 C364.46383057 68.86447754 363.92766113 69.72895508 363.37524414 70.61962891 C352.19484927 88.52066703 340.65523389 105.77556675 326.37109375 121.3828125 C324.46121871 123.49091181 322.59629794 125.62410591 320.73828125 127.77734375 C316.90586534 132.16487712 312.87053843 136.32117623 308.75 140.4375 C308.00564697 141.18177246 307.26129395 141.92604492 306.49438477 142.69287109 C301.64030506 147.49704954 296.69799252 151.9619275 291.3203125 156.17578125 C289.23318442 157.81667151 287.27377847 159.52527438 285.3125 161.3125 C258.24251946 185.1717262 258.24251946 185.1717262 247 187 C247 187.66 247 188.32 247 189 C246.01902344 189.4846875 245.03804687 189.969375 244.02734375 190.46875 C236.32832993 194.28797611 228.67862105 198.17120538 221.13842773 202.296875 C219.43710915 203.21942942 217.71862589 204.11010301 216 205 C214.98164063 205.55816406 213.96328125 206.11632812 212.9140625 206.69140625 C203.33181324 210.65679664 186.40228472 210.2128896 176.71875 206.78125 C173.30433108 205.0577814 170.19720279 203.09769526 167 201 C164.73275756 199.77442142 162.44070863 198.60621045 160.14306641 197.4387207 C145.6578253 190.05784372 131.76341152 182.11280886 119 172 C117.87071769 171.12510549 116.74046992 170.25145608 115.609375 169.37890625 C112.04753823 166.61647694 108.49590402 163.84567067 105 161 C104.07010254 160.24364258 103.14020508 159.48728516 102.18212891 158.70800781 C94.06606395 152.01891631 86.53254227 144.84372546 79.12353516 137.38427734 C77.24472577 135.49469553 75.35538146 133.61612095 73.46484375 131.73828125 C66.52030231 124.80180654 60.03183084 117.75613366 54 110 C53.50113281 109.37544922 53.00226563 108.75089844 52.48828125 108.10742188 C46.83304695 101.02571802 41.74611641 93.72095492 37 86 C35.89737671 84.29067011 34.79317025 82.58236057 33.6875 80.875 C20.8156133 60.61476578 9.24969401 40.33865898 3.11328125 17.00390625 C2.28434635 13.89315273 1.21825859 10.98208516 0 8 C-0.6875 4.25 -0.6875 4.25 -1 1 C-0.67 0.67 -0.34 0.34 0 0 Z " fill="#F5F5F5" transform="translate(105,312)"/>
<path d="M0 0 C3.9257731 3.49767255 6.35727902 7.55731363 9.0625 12 C16.95118187 24.71344485 25.41344138 37.03415828 33.87976074 49.36621094 C34.93684473 50.90789255 35.99050487 52.45192018 37.04394531 53.99609375 C44.20355249 64.48361283 51.5434787 74.52241266 60 84 C60.79148437 84.91265625 61.58296875 85.8253125 62.3984375 86.765625 C66.95475914 91.95952065 71.65688532 96.6267862 77 101 C77.52867676 101.44102051 78.05735352 101.88204102 78.60205078 102.33642578 C92.18937267 113.99352994 92.18937267 113.99352994 108 122 C106.4203417 126.73897489 102.3948726 128.18572721 98.25 130.6875 C97.03183594 131.45416992 97.03183594 131.45416992 95.7890625 132.23632812 C94.60183594 132.96045898 94.60183594 132.96045898 93.390625 133.69921875 C92.66907227 134.14096436 91.94751953 134.58270996 91.20410156 135.0378418 C88.608985 136.17069009 86.80498549 136.26491207 84 136 C71.58712276 128.45859156 61.3660829 111.7321658 55 99 C55.99853836 110.78275267 61.77547208 120.42793924 67.5625 130.4765625 C67.97943115 131.20270752 68.3963623 131.92885254 68.82592773 132.67700195 C69.63714032 134.07792525 70.45925494 135.47260388 71.29321289 136.86010742 C72.27091769 138.53150179 73.14497763 140.26264496 74 142 C73 145 73 145 70.375 146.75 C65.89290113 148.41003662 62.51430017 147.99200685 58.04833984 146.22998047 C48.69403083 141.77938103 42.06340039 137.2189689 37 128 C35.97826003 126.37285898 34.95642817 124.74577499 33.93310547 123.11962891 C28.40063478 114.19776659 23.65526419 104.84408005 18.85546875 95.515625 C16.86553311 91.65006497 14.82227691 87.8226376 12.72094727 84.0168457 C8.19888438 75.78798749 4.55746631 67.26055732 1.03955078 58.56152344 C-0.06503875 55.83974013 -1.19004691 53.12690295 -2.31640625 50.4140625 C-3.06595315 48.58889009 -3.81467319 46.76337786 -4.5625 44.9375 C-4.92150391 44.07423096 -5.28050781 43.21096191 -5.65039062 42.3215332 C-5.97330078 41.52320068 -6.29621094 40.72486816 -6.62890625 39.90234375 C-6.91838135 39.19585693 -7.20785645 38.48937012 -7.50610352 37.76147461 C-8 36 -8 36 -7 34 C-6.6282666 34.50748779 -6.2565332 35.01497559 -5.87353516 35.5378418 C-1.59795715 41.37015182 2.69674962 47.18808607 7 53 C7.52142578 53.70737305 8.04285156 54.41474609 8.58007812 55.14355469 C9.91989895 56.95641429 11.27015484 58.76085538 12.625 60.5625 C13.38039062 61.57441406 14.13578125 62.58632813 14.9140625 63.62890625 C16.93747023 65.92892215 18.28080244 66.76112819 21 68 C20.66790527 67.16041748 20.33581055 66.32083496 19.99365234 65.45581055 C7.31732659 33.31651012 7.31732659 33.31651012 3 18 C2.66355469 16.81148438 2.32710937 15.62296875 1.98046875 14.3984375 C0.6562705 9.42815915 -0.13584098 5.16950413 0 0 Z " fill="#1E1E1E" transform="translate(236,327)"/>
<path d="M0 0 C5.05257918 1.62475095 8.90830439 4.63398765 13.125 7.75 C13.91269775 8.32564697 14.70039551 8.90129395 15.51196289 9.49438477 C18.01215561 11.32396897 20.50646637 13.16135345 23 15 C24.57929098 16.16034152 26.15871574 17.32050098 27.73828125 18.48046875 C30.8849447 20.79355732 34.02770428 23.11182652 37.16796875 25.43359375 C40.49678484 27.89396385 43.83346787 30.34315463 47.17578125 32.78515625 C48.025354 33.40720947 48.87492676 34.0292627 49.75024414 34.67016602 C51.36371251 35.85123305 52.97867844 37.03025824 54.59545898 38.20678711 C56.74676356 39.7840968 58.87939793 41.38168597 61 43 C61.63921387 43.48662109 62.27842773 43.97324219 62.93701172 44.47460938 C67.28307929 47.96638155 70.01448157 51.59613454 72.625 56.5 C73.19565186 57.55320435 73.19565186 57.55320435 73.77783203 58.62768555 C80.15592604 70.69924247 82.84766878 82.57050594 84.69140625 95.95751953 C85.06085374 98.40277087 85.60412191 100.78511663 86.1875 103.1875 C87.65386153 109.98608527 87.15440652 117.08601902 87 124 C84.45034487 121.45034487 83.98413664 119.24461862 82.875 115.8125 C73.66939413 89.00355665 55.88741462 67.19636367 33 51 C33.32830811 51.50281494 33.65661621 52.00562988 33.99487305 52.52368164 C38.96708655 60.28106524 44.23368542 69.60887525 43.69140625 79.125 C42.50269373 82.34862717 40.07192269 83.56164123 37.140625 85.125 C31.85831832 87.28419105 26.65625765 87.62047977 21 87 C13.4338418 83.43945497 7.85483085 76.12094768 4.84375 68.4375 C4.5653125 67.633125 4.286875 66.82875 4 66 C3.55140625 64.7625 3.55140625 64.7625 3.09375 63.5 C1.04016596 56.80683719 0.71924387 50.32202335 0.6875 43.375 C0.68202148 42.50456055 0.67654297 41.63412109 0.67089844 40.73730469 C0.73766928 34.63352828 1.61037411 28.93872174 3 23 C-2.23435005 27.27293882 -6.67106815 31.81580806 -11 37 C-12.07373133 33.7441397 -11.91025638 31.77822157 -10.92578125 28.515625 C-10.66990234 27.66226563 -10.41402344 26.80890625 -10.15039062 25.9296875 C-9.87388672 25.04539062 -9.59738281 24.16109375 -9.3125 23.25 C-9.05533203 22.38117188 -8.79816406 21.51234375 -8.53320312 20.6171875 C-7.03823692 15.72457084 -5.28196499 11.20238715 -2.88061523 6.68261719 C-1.74818157 4.51884319 -0.85685545 2.28494786 0 0 Z " fill="#828282" transform="translate(300,88)"/>
<path d="M0 0 C0.58805513 20.25523226 0.58805513 20.25523226 -3.875 28.4375 C-11.70887732 36.29455447 -25.27013364 38.15769584 -35.8125 38.25 C-43.58568091 38.20931692 -51.00749909 37.1894122 -58.57421875 35.38671875 C-66.75837529 33.49806724 -73.95315326 33.94263623 -81.9375 36.5625 C-93.86525912 40.02429216 -108.87277851 39.65968565 -120 34 C-125.44363495 30.83860678 -128.71069552 28.00605764 -131 22 C-131.48434825 18.37838781 -131.60094132 14.77530327 -131.6875 11.125 C-131.72166016 10.15046875 -131.75582031 9.1759375 -131.79101562 8.171875 C-131.87304293 5.78136509 -131.94233848 3.39120095 -132 1 C-127.22523207 2.02843163 -122.48363496 3.06032021 -117.8125 4.5 C-117.03519531 4.7371875 -116.25789062 4.974375 -115.45703125 5.21875 C-113.72256799 5.77024865 -112.00183262 6.36585067 -110.29296875 6.9921875 C-77.18470451 17.12496588 -37.06134781 12.18775523 -4.9140625 0.953125 C-2 0 -2 0 0 0 Z " fill="#202020" transform="translate(365,201)"/>
<path d="M0 0 C1.15628906 0.74056641 1.15628906 0.74056641 2.3359375 1.49609375 C3.33882812 2.13675781 4.34171875 2.77742187 5.375 3.4375 C6.37273437 4.07558594 7.37046875 4.71367187 8.3984375 5.37109375 C15.5791653 9.86713503 26.09340372 8.98165723 34.2265625 7.17578125 C36.78564207 6.53859905 39.29658082 5.81651002 41.828125 5.0703125 C47.46045178 3.6253148 53.25288218 2.88417197 59 2 C59 23.78 59 45.56 59 68 C42.69080612 64.73816122 21.5626232 42.12237023 12.7265625 28.91015625 C0 7.45927602 0 7.45927602 0 0 Z " fill="#828282" transform="translate(239,247)"/>
<path d="M0 0 C4.33957619 1.41638945 8.64526815 2.84252605 12.875 4.5625 C27.89504075 10.23607404 43.13925917 8.57302477 57.6875 2.25 C58.64011719 1.80140625 59.59273438 1.3528125 60.57421875 0.890625 C63 0 63 0 66 1 C59.88006675 18.84980532 51.28270863 38.14486092 35 49 C29.64234181 49 25.67300285 45.55741885 22 42 C13.39093397 31.64134959 0 13.9830914 0 0 Z " fill="#1E1E1E" transform="translate(267,339)"/>
<path d="M0 0 C0.58805513 20.25523226 0.58805513 20.25523226 -3.875 28.4375 C-11.58008549 36.21158625 -24.31308223 37.31249482 -34.59545898 37.47070312 C-45.03250424 37.3025243 -55.07201723 33.96931315 -65 31 C-65.02684679 28.35409986 -65.04676357 25.70846904 -65.0625 23.0625 C-65.07087891 22.30775391 -65.07925781 21.55300781 -65.08789062 20.77539062 C-65.09652441 18.85005687 -65.05224333 16.92464419 -65 15 C-62.86402612 12.86402612 -58.35773915 13.55388369 -55.46875 13.37890625 C-52.04601689 13.00502662 -48.83710235 12.34427693 -45.49023438 11.56420898 C-42.8252877 10.96041567 -40.15247399 10.43557819 -37.46875 9.921875 C-26.31531652 7.74856155 -15.68469482 5.22041185 -5.0703125 1.13671875 C-2 0 -2 0 0 0 Z " fill="#828282" transform="translate(365,201)"/>
<path d="M0 0 C4.12646797 3.61291191 6.03328158 7.86652797 8.1796875 12.77929688 C12.16880044 21.33926838 18.58167568 24.03859672 26.9375 27.25 C28.23977539 27.7759375 28.23977539 27.7759375 29.56835938 28.3125 C33.47674131 29.84867431 36.73587292 30.97172872 40.94140625 31.421875 C44 32 44 32 45.92578125 34.01171875 C47.37256062 38.0363959 47.32603672 41.5746974 47.1875 45.8125 C47.16719727 46.99489258 47.16719727 46.99489258 47.14648438 48.20117188 C47.11133456 50.13441169 47.05753361 52.06729682 47 54 C43.47165622 53.39958856 43.09432115 53.12314151 40.75 50.0625 C39 47 39 47 39 45 C38.21882813 45.07734375 37.43765625 45.1546875 36.6328125 45.234375 C25.30642717 44.50364046 11.37119577 37.39997013 3.22705078 29.52539062 C-3.16625398 21.73468177 -0.8844916 9.34839588 0 0 Z " fill="#F3F3F3" transform="translate(86,221)"/>
<path d="M0 0 C0.06058594 0.69867188 0.12117188 1.39734375 0.18359375 2.1171875 C0.30927734 3.48230469 0.30927734 3.48230469 0.4375 4.875 C0.51871094 5.77992188 0.59992188 6.68484375 0.68359375 7.6171875 C0.86989285 10.01110861 0.86989285 10.01110861 2 12 C2.27818636 14.03801745 2.52134594 16.08083266 2.75 18.125 C4.69262236 33.76164571 8.03040847 49.25561251 13.1796875 64.1484375 C14 67 14 67 13 69 C6.76489616 61.08451357 1.33143884 52.96722855 -3.70214844 44.24707031 C-5.1802423 41.68793263 -6.67279694 39.13742058 -8.1640625 36.5859375 C-9.25616473 34.70367959 -10.34731689 32.8208701 -11.4375 30.9375 C-11.95803955 30.04490479 -12.4785791 29.15230957 -13.01489258 28.23266602 C-15.49902037 23.90519831 -17.67038048 19.84873225 -19 15 C-4.84375 0 -4.84375 0 0 0 Z " fill="#1E1E1E" transform="translate(153,290)"/>
<path d="M0 0 C0.33 0 0.66 0 1 0 C2.88546773 19.92794358 2.88546773 19.92794358 -1.02734375 25.734375 C-7.04682117 31.9870316 -13.88350183 35.26203462 -22 38 C-23.8161454 38.74112897 -25.62891457 39.49060879 -27.4375 40.25 C-29.90397933 41.26830957 -32.04500325 42.00793789 -34.6796875 42.47265625 C-37.206776 42.78804199 -37.206776 42.78804199 -38.6875 45.1875 C-40.03610745 48.07737311 -41.07757088 50.94888829 -42 54 C-42.99 54 -43.98 54 -45 54 C-45.05816623 50.58340509 -45.09365195 47.16693795 -45.125 43.75 C-45.14175781 42.78191406 -45.15851563 41.81382812 -45.17578125 40.81640625 C-45.18222656 39.88183594 -45.18867188 38.94726562 -45.1953125 37.984375 C-45.20578613 37.12553711 -45.21625977 36.26669922 -45.22705078 35.38183594 C-44.97914411 32.78121497 -44.41989524 31.18443049 -43 29 C-40.8203125 28.34765625 -40.8203125 28.34765625 -38.125 28.0625 C-31.56427518 27.10428887 -26.01605091 24.68912304 -20 22 C-19.12859375 21.66613281 -18.2571875 21.33226562 -17.359375 20.98828125 C-9.43523668 17.66906437 -6.08138368 11.06956178 -2.3828125 3.73046875 C-1 1 -1 1 0 0 Z " fill="#F3F3F3" transform="translate(514,223)"/>
<path d="M0 0 C0.66 0 1.32 0 2 0 C3.46000425 4.15671799 4.90179633 8.31918606 6.32739258 12.48779297 C6.81435255 13.90355105 7.30615756 15.31765264 7.80297852 16.72998047 C8.51834125 18.76628885 9.21577911 20.80801719 9.91015625 22.8515625 C10.54642944 24.68968506 10.54642944 24.68968506 11.19555664 26.56494141 C12.42576258 31.81805144 11.48036166 35.64159133 8.93359375 40.3046875 C8.3293457 41.42617187 8.3293457 41.42617187 7.71289062 42.5703125 C7.29201172 43.33085937 6.87113281 44.09140625 6.4375 44.875 C5.80038086 46.050625 5.80038086 46.050625 5.15039062 47.25 C4.10789462 49.17100387 3.05767555 51.0873249 2 53 C1.34 53 0.68 53 0 53 C-1.26856428 48.98141464 -2.53180512 44.96120529 -3.7902832 40.93945312 C-4.21853473 39.57344222 -4.64820092 38.20787393 -5.0793457 36.84277344 C-5.70121807 34.87291184 -6.31787197 32.90147901 -6.93359375 30.9296875 C-7.30540771 29.74616699 -7.67722168 28.56264648 -8.06030273 27.34326172 C-10.37813236 19.09687074 -10.37813236 19.09687074 -9.19555664 15.66650391 C-8.55928345 14.58248291 -8.55928345 14.58248291 -7.91015625 13.4765625 C-7.45576172 12.68378906 -7.00136719 11.89101562 -6.53320312 11.07421875 C-5.80520508 9.86185547 -5.80520508 9.86185547 -5.0625 8.625 C-4.34030273 7.37783203 -4.34030273 7.37783203 -3.60351562 6.10546875 C-2.41688752 4.06117876 -1.21568665 2.02709789 0 0 Z " fill="#1F1F1F" transform="translate(466,154)"/>
<path d="M0 0 C0.66 0 1.32 0 2 0 C3.58479463 2.95807285 5.10910748 5.94361228 6.625 8.9375 C7.07101563 9.76830078 7.51703125 10.59910156 7.9765625 11.45507812 C10.64499689 16.81279406 11.4718844 20.17591357 9.71533203 25.95678711 C9.47927246 26.63104736 9.24321289 27.30530762 9 28 C8.69320312 29.08925781 8.38640625 30.17851562 8.0703125 31.30078125 C7.75835937 32.29464844 7.44640625 33.28851563 7.125 34.3125 C6.78210938 35.405625 6.43921875 36.49875 6.0859375 37.625 C4.4323695 42.7641466 2.73203835 47.88680168 1 53 C0.34 53 -0.32 53 -1 53 C-2.32532061 50.48521169 -3.63520231 47.96418013 -4.9375 45.4375 C-5.31068359 44.73302734 -5.68386719 44.02855469 -6.06835938 43.30273438 C-10.09627017 35.42835021 -10.36798281 29.99171522 -7.74609375 21.55078125 C-7.25302734 20.04064453 -7.25302734 20.04064453 -6.75 18.5 C-6.43675781 17.49324219 -6.12351562 16.48648438 -5.80078125 15.44921875 C-4.12987028 10.1591562 -2.29781519 5.0495198 0 0 Z " fill="#1F1F1F" transform="translate(134,154)"/>
<path d="M0 0 C0.33 0 0.66 0 1 0 C-0.39416028 17.1954311 -3.62500852 33.81457589 -12 49 C-12.57621094 50.09441406 -13.15242188 51.18882812 -13.74609375 52.31640625 C-17.65368852 59.65368852 -17.65368852 59.65368852 -19 61 C-23.03160191 61.26293056 -24.55892734 61.29404844 -28 59 C-28.70072904 54.0388384 -27.38477637 51.3842426 -24.75 47.25 C-19.87970107 39.2829792 -16.12584783 30.8330914 -12.30175781 22.32714844 C-5.01762715 6.20526189 -5.01762715 6.20526189 0 0 Z " fill="#F2F2F2" transform="translate(521,151)"/>
<path d="M0 0 C8.25 0 16.5 0 25 0 C25 7.54155613 24.91871033 14.5846952 24 22 C20.02084841 22.02886984 16.04172347 22.04675406 12.0625 22.0625 C10.35803711 22.07506836 10.35803711 22.07506836 8.61914062 22.08789062 C7.53955078 22.09111328 6.45996094 22.09433594 5.34765625 22.09765625 C3.84730835 22.10551147 3.84730835 22.10551147 2.31665039 22.11352539 C0 22 0 22 -1 21 C-1.10048227 18.21900528 -1.13870954 15.46825072 -1.125 12.6875 C-1.12886719 11.91470703 -1.13273437 11.14191406 -1.13671875 10.34570312 C-1.13542969 9.59611328 -1.13414062 8.84652344 -1.1328125 8.07421875 C-1.13168457 7.38932373 -1.13055664 6.70442871 -1.12939453 5.9987793 C-1 4 -1 4 0 0 Z " fill="#7F7F7F" transform="translate(276,187)"/>
<path d="M0 0 C0.66 0 1.32 0 2 0 C2.95909551 2.22884145 3.91729837 4.45805968 4.875 6.6875 C5.14441406 7.31333984 5.41382812 7.93917969 5.69140625 8.58398438 C6.46561416 10.38732231 7.23293164 12.19361363 8 14 C8.41507813 14.87269531 8.83015625 15.74539062 9.2578125 16.64453125 C10.84673258 21.68726181 8.17437518 26.88396676 6.625 31.75 C6.40094482 32.45866211 6.17688965 33.16732422 5.94604492 33.89746094 C5.30076263 35.93274324 4.65113275 37.96658304 4 40 C3.69449219 40.9590625 3.38898438 41.918125 3.07421875 42.90625 C1.93278753 46.41834605 0.70233787 49.72571609 -1 53 C-6.48043134 48.69394681 -8.09464208 42.05558296 -10 35.625 C-10 31.14691404 -8.77934504 27.79627891 -7.25390625 23.61328125 C-5.46774885 18.46625446 -4.08092887 13.22581908 -2.66357422 7.9675293 C-1.09422637 2.18845274 -1.09422637 2.18845274 0 0 Z " fill="#1F1F1F" transform="translate(122,127)"/>
<path d="M0 0 C3.80749921 1.90374961 4.37041099 7.1445196 5.6953125 11.015625 C7.66300658 16.95067863 9.51239432 22.92561014 11 29 C11.28230469 30.10601562 11.56460937 31.21203125 11.85546875 32.3515625 C12.05333909 37.34645162 10.32489397 40.57351031 8.0625 44.9375 C7.67642578 45.71673828 7.29035156 46.49597656 6.89257812 47.29882812 C5.94425285 49.20718639 4.97427045 51.10475617 4 53 C3.34 53 2.68 53 2 53 C1.80365967 52.34515625 1.60731934 51.6903125 1.4050293 51.015625 C0.50199091 48.00956599 -0.40522363 45.00478251 -1.3125 42 C-1.62123047 40.97003906 -1.92996094 39.94007813 -2.24804688 38.87890625 C-3.6052824 34.39288568 -4.96269785 30.00431424 -6.79296875 25.6875 C-9.09876192 18.64326457 -6.54963929 13.34224245 -3.4375 7.0625 C-3.10814453 6.37865234 -2.77878906 5.69480469 -2.43945312 4.99023438 C-1.63482961 3.32268129 -0.8186103 1.66073161 0 0 Z " fill="#202020" transform="translate(478,127)"/>
<path d="M0 0 C3 1 3 1 4.5859375 3.83203125 C5.19256948 5.15418668 5.78793119 6.48154262 6.375 7.8125 C7.07539278 9.34771468 7.77592429 10.88286607 8.4765625 12.41796875 C8.86875977 13.28728027 9.26095703 14.1565918 9.66503906 15.05224609 C12.04117293 20.29903473 14.46239897 25.52497346 16.88360596 30.75106812 C17.73624614 32.59525165 18.58401712 34.44161255 19.43115234 36.28833008 C22.6683415 43.34187884 22.6683415 43.34187884 26.36328125 50.16015625 C28.07397822 53.12835839 28.6716502 54.641749 28 58 C24.53076119 60.31282587 23.07794425 60.42478586 19 60 C5.2538083 49.42326701 2.42593079 18.90661761 0 3 C0 2.01 0 1.02 0 0 Z " fill="#F1F1F1" transform="translate(80,152)"/>
<path d="M0 0 C0.9583374 0.04713135 1.9166748 0.0942627 2.90405273 0.14282227 C3.93852539 0.19116211 4.97299805 0.23950195 6.03881836 0.28930664 C7.12743164 0.34538086 8.21604492 0.40145508 9.33764648 0.45922852 C10.43012695 0.51143555 11.52260742 0.56364258 12.64819336 0.61743164 C15.35740405 0.7475684 18.06630794 0.88406276 20.77514648 1.02172852 C20.44514648 8.28172852 20.11514648 15.54172852 19.77514648 23.02172852 C11.51176879 22.47083667 3.80043326 21.05037811 -4.22485352 19.02172852 C-5.60800724 15.15474239 -4.95491545 11.83343927 -4.34985352 7.83422852 C-4.16680664 6.58254883 -3.98375977 5.33086914 -3.79516602 4.04125977 C-3.03747797 0.02966482 -3.03747797 0.02966482 0 0 Z " fill="#1F1F1F" transform="translate(253.224853515625,184.978271484375)"/>
<path d="M0 0 C3.12498063 -0.02895976 6.2499269 -0.04678483 9.375 -0.0625 C10.70917969 -0.07506836 10.70917969 -0.07506836 12.0703125 -0.08789062 C13.34648437 -0.09272461 13.34648437 -0.09272461 14.6484375 -0.09765625 C15.43395996 -0.10289307 16.21948242 -0.10812988 17.02880859 -0.11352539 C19 0 19 0 21 1 C21.26618595 7.95041086 20.6120509 14.23514355 19 21 C14.48184719 21.88277755 10.22487306 22.10589503 5.625 22.0625 C3.75714844 22.04896484 3.75714844 22.04896484 1.8515625 22.03515625 C0.44003906 22.01775391 0.44003906 22.01775391 -1 22 C-1.02716824 19.45826023 -1.04691969 16.91681585 -1.0625 14.375 C-1.07087891 13.66214844 -1.07925781 12.94929687 -1.08789062 12.21484375 C-1.10710296 8.02655562 -0.8267327 4.1271538 0 0 Z " fill="#808080" transform="translate(303,187)"/>
<path d="M0 0 C0 6.27 0 12.54 0 19 C-7.57850064 20.91456858 -14.1941839 22.3969059 -22 22 C-21.85888117 19.24968413 -21.71228835 16.49984582 -21.5625 13.75 C-21.52318359 12.97269531 -21.48386719 12.19539062 -21.44335938 11.39453125 C-21.40146484 10.64042969 -21.35957031 9.88632813 -21.31640625 9.109375 C-21.27974854 8.41811523 -21.24309082 7.72685547 -21.20532227 7.01464844 C-20.99324476 4.93371671 -20.55491323 3.01427578 -20 1 C-18.1670726 0.82892678 -16.33362803 0.6633926 -14.5 0.5 C-13.4790625 0.4071875 -12.458125 0.314375 -11.40625 0.21875 C-7.61128514 -0.02496334 -3.80278247 0 0 0 Z " fill="#1F1F1F" transform="translate(347,185)"/>
<path d="M0 0 C13.24807894 -0.28472483 23.62082017 3.80341692 35 10 C36.9963236 11.00731925 38.99519248 12.00967339 41 13 C40.67 13.99 40.34 14.98 40 16 C36.12137916 17.39044898 33.13537997 18 29 18 C29 17.34 29 16.68 29 16 C30.65 15.67 32.3 15.34 34 15 C33.39414062 15.0721875 32.78828125 15.144375 32.1640625 15.21875 C13.40505445 17.29667089 13.40505445 17.29667089 6 12 C2.56939321 8.38883496 0 5.06351405 0 0 Z " fill="#F3F3F3" transform="translate(245,213)"/>
<path d="M0 0 C4.07706077 0.40770608 6.95219388 2.94081611 10.125 5.3125 C15.62962203 9.33132877 21.20332324 13.22030578 26.875 17 C27.62394531 17.49975342 28.37289063 17.99950684 29.14453125 18.5144043 C32.96079916 21.04317273 36.80359451 23.51547723 40.703125 25.9140625 C41.4470752 26.37167969 42.19102539 26.82929688 42.95751953 27.30078125 C44.37597887 28.16738673 45.79870213 29.02706067 47.22607422 29.87890625 C48.85026668 30.8671473 50.43070306 31.92672062 52 33 C52 33.66 52 34.32 52 35 C48.15026529 35.9635336 45.48855685 36.62966118 41.77099609 35.05712891 C39.3335275 33.56683311 37.01082876 31.97521351 34.6875 30.3125 C32.92813785 29.10913389 31.16769244 27.90735025 29.40625 26.70703125 C28.51421875 26.09037598 27.6221875 25.4737207 26.703125 24.83837891 C22.43963274 21.9388037 18.06546239 19.22232494 13.6875 16.5 C8.32547865 13.16059892 3.10510225 9.72261089 -2 6 C-1.125 1.125 -1.125 1.125 0 0 Z " fill="#7D7D7D" transform="translate(423,192)"/>
<path d="M0 0 C1.4606285 2.64738916 2 3.89448334 2 7 C-0.07179135 8.63203893 -2.09089985 10.03453091 -4.3125 11.4375 C-5.30890503 12.08404541 -5.30890503 12.08404541 -6.32543945 12.74365234 C-8.5420492 14.17578187 -10.76938974 15.58978471 -13 17 C-13.78600586 17.49806152 -14.57201172 17.99612305 -15.38183594 18.50927734 C-18.62683646 20.56339799 -21.87221105 22.61650344 -25.13085938 24.64892578 C-28.70157222 26.88098567 -32.23611548 29.12718901 -35.6640625 31.57421875 C-36.70304688 32.31285156 -37.74203125 33.05148438 -38.8125 33.8125 C-39.68519531 34.45832031 -40.55789062 35.10414063 -41.45703125 35.76953125 C-44.70494067 37.34110032 -46.57126831 36.89597514 -50 36 C-50 35.01 -50 34.02 -50 33 C-48.25024414 31.56469727 -48.25024414 31.56469727 -45.78515625 30.06640625 C-44.87918701 29.50574463 -43.97321777 28.94508301 -43.03979492 28.36743164 C-42.0572876 27.7718042 -41.07478027 27.17617676 -40.0625 26.5625 C-27.4370617 18.7266197 -15.05963588 10.55586511 -3.56640625 1.109375 C-2 0 -2 0 0 0 Z " fill="#7E7E7E" transform="translate(177,192)"/>
<path d="M0 0 C1.17175781 0.01353516 1.17175781 0.01353516 2.3671875 0.02734375 C2.94726562 0.03894531 3.52734375 0.05054688 4.125 0.0625 C3.67125711 4.94023605 2.60322112 7.58427888 -0.875 11.0625 C-6.46627731 14.81395091 -11.77600772 14.412894 -18.25 14.25 C-19.78333984 14.22969727 -19.78333984 14.22969727 -21.34765625 14.20898438 C-23.85732049 14.17380217 -26.3658809 14.12457539 -28.875 14.0625 C-26.895 14.7225 -24.915 15.3825 -22.875 16.0625 C-26.35371621 17.22207207 -27.21719645 16.83706651 -30.5625 15.625 C-31.37074219 15.33753906 -32.17898438 15.05007812 -33.01171875 14.75390625 C-33.62660156 14.52574219 -34.24148438 14.29757813 -34.875 14.0625 C-33.875 11.0625 -33.875 11.0625 -31.74536133 9.81982422 C-30.8252124 9.4229541 -29.90506348 9.02608398 -28.95703125 8.6171875 C-27.94962891 8.18019531 -26.94222656 7.74320313 -25.90429688 7.29296875 C-24.84275391 6.84566406 -23.78121094 6.39835938 -22.6875 5.9375 C-21.64529297 5.48246094 -20.60308594 5.02742187 -19.52929688 4.55859375 C-12.96011685 1.74382749 -7.21752062 -0.10935637 0 0 Z " fill="#FAFAFA" transform="translate(349.875,213.9375)"/>
<path d="M0 0 C0.67756882 1.55780332 1.34159457 3.12150096 2 4.6875 C2.37125 5.55761719 2.7425 6.42773438 3.125 7.32421875 C4.01870488 10.0572002 4.16449676 12.14700934 4 15 C2.08850332 16.0098473 0.17058431 17.00754495 -1.75 18 C-2.81734375 18.556875 -3.8846875 19.11375 -4.984375 19.6875 C-8 21 -8 21 -12 21 C-12.33 15.06 -12.66 9.12 -13 3 C-2.25 0 -2.25 0 0 0 Z " fill="#1D1D1D" transform="translate(362,181)"/>
<path d="M0 0 C0.66 0 1.32 0 2 0 C6.37466266 7.19996562 9.27239772 12.04409579 7.44921875 20.578125 C5.65382148 27.59923165 5.65382148 27.59923165 2.890625 29.29296875 C2.26671875 29.52628906 1.6428125 29.75960937 1 30 C-2.57551763 25.7251387 -5.12034023 22.15668575 -4.80078125 16.4296875 C-3.57924892 10.81659749 -1.84464729 5.43512148 0 0 Z " fill="#828282" transform="translate(166,219)"/>
<path d="M0 0 C4.46839215 -0.21278058 7.82262526 0.40861915 12 2 C11.33333333 8 10.66666667 14 10 20 C4.65155992 19.46515599 0.64203897 17.53309233 -4 15 C-4.59720137 9.17728663 -2.528243 5.0790596 0 0 Z " fill="#1D1D1D" transform="translate(236,182)"/>
<path d="M0 0 C0.99 0.33 1.98 0.66 3 1 C4.16796875 3.984375 4.16796875 3.984375 5.1875 7.75 C5.53167969 8.98234375 5.87585938 10.2146875 6.23046875 11.484375 C7.77942851 18.56084092 7.77942851 18.56084092 5.90625 22.01953125 C5.4421875 22.61121094 4.978125 23.20289063 4.5 23.8125 C4.0359375 24.41707031 3.571875 25.02164063 3.09375 25.64453125 C2.7328125 26.09183594 2.371875 26.53914063 2 27 C-0.3125 26.5 -0.3125 26.5 -3 25 C-5.61558348 20.54533439 -6.43299535 16.13131801 -6 11 C-4.6875 8.0078125 -4.6875 8.0078125 -3 5.125 C-2.443125 4.15820312 -1.88625 3.19140625 -1.3125 2.1953125 C-0.879375 1.47085938 -0.44625 0.74640625 0 0 Z " fill="#818181" transform="translate(432,219)"/>
<path d="M0 0 C1.00427892 3.45710552 2.0026944 6.91587697 3 10.375 C3.28617187 11.35984375 3.57234375 12.3446875 3.8671875 13.359375 C4.13789063 14.30039063 4.40859375 15.24140625 4.6875 16.2109375 C4.93886719 17.08024902 5.19023437 17.94956055 5.44921875 18.84521484 C6 21 6 21 6 23 C3.36955699 21.71524695 0.8342562 20.34825805 -1.671875 18.8359375 C-2.33574219 18.43632812 -2.99960937 18.03671875 -3.68359375 17.625 C-4.36550781 17.2125 -5.04742187 16.8 -5.75 16.375 C-6.44738281 15.95476562 -7.14476562 15.53453125 -7.86328125 15.1015625 C-9.57632572 14.06904254 -11.28827213 13.03470118 -13 12 C-12.32984517 7.15478061 -11.58133545 4.48185391 -8 1 C-5.16132401 0.099932 -2.97959293 0 0 0 Z " fill="#1E1E1E" transform="translate(457,189)"/>
<path d="M0 0 C7.44297082 0.61007958 7.44297082 0.61007958 9.875 2.3125 C13.10042679 7.15064018 13.10042679 7.15064018 12.76733398 9.96777344 C11.79813585 12.53462208 10.79548528 13.16096118 8.47265625 14.578125 C7.76302734 15.01640625 7.05339844 15.4546875 6.32226562 15.90625 C5.57654297 16.3496875 4.83082031 16.793125 4.0625 17.25 C3.32064453 17.70890625 2.57878906 18.1678125 1.81445312 18.640625 C-3.69952102 22 -3.69952102 22 -6 22 C-4 14.66666667 -2 7.33333333 0 0 Z " fill="#1F1F1F" transform="translate(144,190)"/>
<path d="M0 0 C0.66 0 1.32 0 2 0 C2.38671875 1.24394531 2.7734375 2.48789063 3.171875 3.76953125 C3.6975477 5.45063625 4.22361555 7.13161772 4.75 8.8125 C5.02078369 9.68092529 5.29156738 10.54935059 5.57055664 11.4440918 C7.04702799 16.13598964 8.62623177 20.73666447 10.4375 25.3125 C11.91201339 29.23641165 12.3684072 31.8947784 11 36 C10.67 36.66 10.34 37.32 10 38 C9.34 38 8.68 38 8 38 C6.73143572 33.98141464 5.46819488 29.96120529 4.2097168 25.93945312 C3.78146527 24.57344222 3.35179908 23.20787393 2.9206543 21.84277344 C2.29878193 19.87291184 1.68212803 17.90147901 1.06640625 15.9296875 C0.69459229 14.74616699 0.32277832 13.56264648 -0.06030273 12.34326172 C-0.94485717 9.19618756 -1.70925084 6.25743005 -2 3 C-1.34 2.01 -0.68 1.02 0 0 Z " fill="#797979" transform="translate(458,169)"/>
<path d="M0 0 C2.06016803 1.70187794 2.94347042 2.82845231 3.7890625 5.39453125 C4.03156073 8.38983342 3.53771408 9.93160136 2.375 12.6875 C0.01901121 18.68008472 -1.67022893 24.77088807 -3.33642578 30.98120117 C-4.91162804 36.82325608 -4.91162804 36.82325608 -6 39 C-6.66 39 -7.32 39 -8 39 C-10.80457164 33.39085672 -7.29750612 24.7602656 -5.625 19.0625 C-5.40239502 18.28342285 -5.17979004 17.5043457 -4.95043945 16.70166016 C-4.30881863 14.4651799 -3.65696465 12.23201529 -3 10 C-2.50693359 8.32357422 -2.50693359 8.32357422 -2.00390625 6.61328125 C-1.34571417 4.40566092 -0.6801853 2.20092479 0 0 Z " fill="#797979" transform="translate(141,168)"/>
<path d="M0 0 C1.5625 1.1875 1.5625 1.1875 3 3 C2.46170748 7.37864809 0.95953532 11.55870191 -0.375 15.75 C-0.59905518 16.45866211 -0.82311035 17.16732422 -1.05395508 17.89746094 C-1.69923737 19.93274324 -2.34886725 21.96658304 -3 24 C-3.30550781 24.9590625 -3.61101562 25.918125 -3.92578125 26.90625 C-5.06721247 30.41834605 -6.29766213 33.72571609 -8 37 C-9.5625 35.875 -9.5625 35.875 -11 34 C-10.54606399 29.65043211 -9.35119466 25.67902618 -7.96875 21.54296875 C-7.37126953 19.75149414 -7.37126953 19.75149414 -6.76171875 17.92382812 C-6.34535156 16.69083984 -5.92898437 15.45785156 -5.5 14.1875 C-5.08363281 12.93517578 -4.66726562 11.68285156 -4.23828125 10.39257812 C-1.13350128 1.13350128 -1.13350128 1.13350128 0 0 Z " fill="#777777" transform="translate(129,143)"/>
<path d="M0 0 C3.79519571 5.69279357 5.69659157 12.57764941 8 19 C8.3609375 19.98871094 8.721875 20.97742188 9.09375 21.99609375 C10.93557999 27.46189478 11.15433958 31.33324205 10 37 C9.34 37 8.68 37 8 37 C7.80365967 36.34515625 7.60731934 35.6903125 7.4050293 35.015625 C6.50199091 32.00956599 5.59477637 29.00478251 4.6875 26 C4.37876953 24.97003906 4.07003906 23.94007813 3.75195312 22.87890625 C2.37828336 18.3385662 0.98689211 13.85093933 -0.74609375 9.43359375 C-2.01898151 5.9480226 -2.25136948 4.44126607 -1 1 C-0.67 0.67 -0.34 0.34 0 0 Z " fill="#7C7C7C" transform="translate(472,143)"/>
<path d="M0 0 C0.99 0 1.98 0 3 0 C2.67 6.93 2.34 13.86 2 21 C0.35 21 -1.3 21 -3 21 C-5.63827703 18.36172297 -5.35901928 16.99186086 -5.4375 13.3125 C-5.34971852 7.23363281 -4.23516224 4.33365439 0 0 Z " fill="#7D7D7D" transform="translate(271,187)"/>
<path d="M0 0 C1.46256659 2.7269181 2.91928541 5.4569188 4.375 8.1875 C4.7875 8.95642578 5.2 9.72535156 5.625 10.51757812 C7.62877719 14.2827401 9.53510452 17.98361075 11 22 C9.02 22.99 9.02 22.99 7 24 C5.57639453 21.62732422 4.15350684 19.25426265 2.734375 16.87890625 C1.59190775 14.98251354 0.43592998 13.09418485 -0.734375 11.21484375 C-1.54648438 9.90193359 -1.54648438 9.90193359 -2.375 8.5625 C-2.87773437 7.75941406 -3.38046875 6.95632812 -3.8984375 6.12890625 C-5 4 -5 4 -5 1 C-3 0 -3 0 0 0 Z " fill="#1D1D1D" transform="translate(153,230)"/>
<path d="M0 0 C1.9375 0.375 1.9375 0.375 4 1 C4.33 1.66 4.66 2.32 5 3 C4.19555664 4.87939453 4.19555664 4.87939453 2.91015625 7.1328125 C2.45576172 7.93847656 2.00136719 8.74414062 1.53320312 9.57421875 C0.80520508 10.83685547 0.80520508 10.83685547 0.0625 12.125 C-0.41896484 12.97449219 -0.90042969 13.82398438 -1.39648438 14.69921875 C-2.59057183 16.80365011 -3.79196837 18.90355191 -5 21 C-6.32 21 -7.64 21 -9 21 C-10 18 -10 18 -9.19555664 16.00708008 C-8.55928345 14.89949341 -8.55928345 14.89949341 -7.91015625 13.76953125 C-7.45576172 12.96708984 -7.00136719 12.16464844 -6.53320312 11.33789062 C-6.04787109 10.50451172 -5.56253906 9.67113281 -5.0625 8.8125 C-4.58103516 7.96751953 -4.09957031 7.12253906 -3.60351562 6.25195312 C-2.4112945 4.16261511 -1.20990182 2.07913325 0 0 Z " fill="#1D1D1D" transform="translate(448,229)"/>
<path d="M0 0 C0.66 0 1.32 0 2 0 C6.1479151 4.62652069 5.27510986 10.18193584 5 16 C3.02 16 1.04 16 -1 16 C-0.67 10.72 -0.34 5.44 0 0 Z " fill="#828282" transform="translate(326,191)"/>
<path d="M0 0 C1.65 0 3.3 0 5 0 C7.0662997 5.71271093 7.0006709 10.03654233 6 16 C5.34 16 4.68 16 4 16 C2.68 10.72 1.36 5.44 0 0 Z " fill="#7D7D7D" transform="translate(488,138)"/>
<path d="M0 0 C1.65 0 3.3 0 5 0 C4.71617054 1.75128818 4.42260471 3.50100003 4.125 5.25 C3.96257812 6.22453125 3.80015625 7.1990625 3.6328125 8.203125 C3.05144152 10.77264117 2.29159735 12.72071056 1 15 C0.34 15 -0.32 15 -1 15 C-2.4002792 9.53891111 -1.42705634 5.30723432 0 0 Z " fill="#797979" transform="translate(109,138)"/>
<path d="M0 0 C3.63 0 7.26 0 11 0 C11 0.33 11 0.66 11 1 C9.35 1 7.7 1 6 1 C5.95101562 1.61488281 5.90203125 2.22976562 5.8515625 2.86328125 C5.77679688 3.67152344 5.70203125 4.47976562 5.625 5.3125 C5.55539063 6.11300781 5.48578125 6.91351563 5.4140625 7.73828125 C5 10 5 10 3 13 C2.49487756 11.39743892 1.99608373 9.79288208 1.5 8.1875 C1.2215625 7.29417969 0.943125 6.40085938 0.65625 5.48046875 C0 3 0 3 0 0 Z " fill="#1F1F1F" transform="translate(103,137)"/>
<path d="M0 0 C3.73719551 0.93429888 6.00506457 2.02647202 9.25 4 C10.14203125 4.53625 11.0340625 5.0725 11.953125 5.625 C12.96632813 6.305625 12.96632813 6.305625 14 7 C14 7.33 14 7.66 14 8 C10.37 8 6.74 8 3 8 C2.01 5.36 1.02 2.72 0 0 Z " fill="#1B1B1B" transform="translate(483,125)"/>
<path d="M0 0 C3.63 0 7.26 0 11 0 C10.00456193 4.83498492 9.21756845 8.56486311 7 13 C6.34 9.04 5.68 5.08 5 1 C3.35 1 1.7 1 0 1 C0 0.67 0 0.34 0 0 Z " fill="#262626" transform="translate(488,137)"/>
<path d="M0 0 C0.66 0.33 1.32 0.66 2 1 C1.01 3.31 0.02 5.62 -1 8 C-4.3 8 -7.6 8 -11 8 C-8.92425239 4.88637859 -7.6945425 4.01322151 -4.5 2.25 C-3.7059375 1.80140625 -2.911875 1.3528125 -2.09375 0.890625 C-1.05734375 0.44976562 -1.05734375 0.44976562 0 0 Z " fill="#1B1B1B" transform="translate(117,125)"/>
<path d="M0 0 C0.66 0 1.32 0 2 0 C1.72350393 3.31395208 1.42627566 6.62571605 1.125 9.9375 C1.04636719 10.88302734 0.96773437 11.82855469 0.88671875 12.80273438 C0.80292969 13.70185547 0.71914062 14.60097656 0.6328125 15.52734375 C0.55949707 16.35999756 0.48618164 17.19265137 0.41064453 18.05053711 C0.27513184 18.69385986 0.13961914 19.33718262 0 20 C-0.66 20.33 -1.32 20.66 -2 21 C-2.28307925 13.75002578 -1.50974035 7.09038772 0 0 Z " fill="#000000" transform="translate(202,186)"/>
<path d="M0 0 C1.67542976 0.28604898 3.34385343 0.61781233 5 1 C5.625 2.875 5.625 2.875 6 5 C5.34 5.66 4.68 6.32 4 7 C1.375 6.625 1.375 6.625 -1 6 C-1.042721 4.33388095 -1.04063832 2.66617115 -1 1 C-0.67 0.67 -0.34 0.34 0 0 Z " fill="#FFFFFF" transform="translate(489,289)"/>
<path d="M0 0 C3.57104439 1.87949705 5.54744301 3.17053157 7 7 C5.625 9 5.625 9 4 11 C3.34 11 2.68 11 2 11 C1.34 7.37 0.68 3.74 0 0 Z " fill="#7E7E7E" transform="translate(439,220)"/>
<path d="M0 0 C1.67542976 0.28604898 3.34385343 0.61781233 5 1 C4.67 2.65 4.34 4.3 4 6 C2.68 6.33 1.36 6.66 0 7 C0 6.34 0 5.68 0 5 C-0.66 5 -1.32 5 -2 5 C-1.125 1.125 -1.125 1.125 0 0 Z " fill="#FFFFFF" transform="translate(108,288)"/>
<path d="M0 0 C0.66 0.99 1.32 1.98 2 3 C0.75314243 4.58580914 -0.49763026 6.1685404 -1.75 7.75 C-2.79414063 9.07257813 -2.79414063 9.07257813 -3.859375 10.421875 C-5.79945897 12.75847248 -7.81512186 14.8938562 -10 17 C-8.51364884 12.78345644 -6.38750841 9.37521395 -3.875 5.6875 C-3.15054687 4.61886719 -2.42609375 3.55023438 -1.6796875 2.44921875 C-0.84824219 1.23685547 -0.84824219 1.23685547 0 0 Z " fill="#5D5D5D" transform="translate(350,354)"/>
<path d="M0 0 C2.125 0.375 2.125 0.375 4 1 C3.67 1.99 3.34 2.98 3 4 C-0.87862084 5.39044898 -3.86462003 6 -8 6 C-8 5.34 -8 4.68 -8 4 C-6.576875 3.566875 -6.576875 3.566875 -5.125 3.125 C-1.94788422 2.23174891 -1.94788422 2.23174891 0 0 Z " fill="#CCCCCC" transform="translate(282,225)"/>
<path d="M0 0 C0.66 0 1.32 0 2 0 C1.49287967 3.71888239 0.88391785 6.73454239 -1 10 C-1.99 10 -2.98 10 -4 10 C-3.52651586 5.8333396 -2.95303159 3.07115285 0 0 Z " fill="#717171" transform="translate(448,191)"/>
<path d="M0 0 C0.33 0 0.66 0 1 0 C1 5.94 1 11.88 1 18 C1.66 18 2.32 18 3 18 C3.33 17.34 3.66 16.68 4 16 C3.67 17.65 3.34 19.3 3 21 C2.01 21 1.02 21 0 21 C0 14.07 0 7.14 0 0 Z " fill="#9B9B9B" transform="translate(469,256)"/>
<path d="M0 0 C2.125 0.9375 2.125 0.9375 4 2 C3.67 2.66 3.34 3.32 3 4 C4.98 4.66 6.96 5.32 9 6 C5.52128379 7.15957207 4.65780355 6.77456651 1.3125 5.5625 C0.50425781 5.27503906 -0.30398438 4.98757812 -1.13671875 4.69140625 C-1.75160156 4.46324219 -2.36648438 4.23507813 -3 4 C-2.67 3.01 -2.34 2.02 -2 1 C-1.34 0.67 -0.68 0.34 0 0 Z " fill="#E2E2E2" transform="translate(318,224)"/>
<path d="M0 0 C0.99 0 1.98 0 3 0 C2.67 2.97 2.34 5.94 2 9 C1.34 7.68 0.68 6.36 0 5 C-0.99 6.32 -1.98 7.64 -3 9 C-3.66 8.67 -4.32 8.34 -5 8 C-4.24266726 6.6589523 -3.46867264 5.32730219 -2.6875 4 C-2.25824219 3.2575 -1.82898438 2.515 -1.38671875 1.75 C-0.70029297 0.88375 -0.70029297 0.88375 0 0 Z " fill="#C6C6C6" transform="translate(494,314)"/>
<path d="M0 0 C-0.66 2.97 -1.32 5.94 -2 9 C-2.66 9 -3.32 9 -4 9 C-4.66 7.02 -5.32 5.04 -6 3 C-2.25 0 -2.25 0 0 0 Z " fill="#7C7C7C" transform="translate(161,223)"/>
<path d="M0 0 C2.4932534 0.99730136 3.77467439 1.65074531 5.25 3.9375 C6 6 6 6 6 9 C5.01 9 4.02 9 3 9 C0 3.375 0 3.375 0 0 Z " fill="#767676" transform="translate(151,192)"/>
<path d="M0 0 C1.53166168 4.08443115 0.63081652 7.79455657 0 12 C-0.66 10.68 -1.32 9.36 -2 8 C-2.99 8.495 -2.99 8.495 -4 9 C-2.94124926 5.59687262 -1.99097846 2.98646769 0 0 Z " fill="#242424" transform="translate(407,325)"/>
<path d="M0 0 C0.99 0.33 1.98 0.66 3 1 C2.67 4.3 2.34 7.6 2 11 C-1 8 -1 8 -1.07421875 5.95703125 C-0.71614583 3.97135417 -0.35807292 1.98567708 0 0 Z " fill="#070707" transform="translate(247,189)"/>
<path d="M0 0 C0.33 0 0.66 0 1 0 C0.67 3.3 0.34 6.6 0 10 C-0.66 9.01 -1.32 8.02 -2 7 C-2.99 7.495 -2.99 7.495 -4 8 C-3.4021799 4.65220745 -2.20964398 2.57791798 0 0 Z " fill="#D9D9D9" transform="translate(521,151)"/>
<path d="M0 0 C1.485 0.99 1.485 0.99 3 2 C2.67 4.31 2.34 6.62 2 9 C3.65 9 5.3 9 7 9 C7 9.33 7 9.66 7 10 C5.02 10 3.04 10 1 10 C0.67 6.7 0.34 3.4 0 0 Z " fill="#2D2D2D" transform="translate(323,198)"/>
<path d="M0 0 C0.66 0 1.32 0 2 0 C2.66 1.98 3.32 3.96 4 6 C2.35 5.67 0.7 5.34 -1 5 C-0.67 3.35 -0.34 1.7 0 0 Z " fill="#5D5D5D" transform="translate(147,181)"/>
<path d="M0 0 C0.66 0 1.32 0 2 0 C2.66 1.65 3.32 3.3 4 5 C2.02 5.99 2.02 5.99 0 7 C0 4.69 0 2.38 0 0 Z " fill="#6F6F6F" transform="translate(326,191)"/>
<path d="M0 0 C0.66 0 1.32 0 2 0 C2.33 1.65 2.66 3.3 3 5 C1.35 5.33 -0.3 5.66 -2 6 C-1.34 4.02 -0.68 2.04 0 0 Z " fill="#646464" transform="translate(452,180)"/>
<path d="M0 0 C0.66 0.33 1.32 0.66 2 1 C-0.475 2.485 -0.475 2.485 -3 4 C-2.67 3.01 -2.34 2.02 -2 1 C-1.34 0.67 -0.68 0.34 0 0 Z " fill="#000000" transform="translate(271,92)"/>
<path d="M0 0 C0.66 0 1.32 0 2 0 C2 0.66 2 1.32 2 2 C0.68 2.33 -0.64 2.66 -2 3 C-1.34 2.01 -0.68 1.02 0 0 Z " fill="#000000" transform="translate(249,107)"/>
</svg>
